<?xml version="1.0" encoding="UTF-8"?>
<svg width="63px" height="63px" viewBox="0 0 63 63" version="1.1" xmlns="http://www.w3.org/2000/svg" xmlns:xlink="http://www.w3.org/1999/xlink">
    <!-- Generator: Sketch 52 (66869) - http://www.bohemiancoding.com/sketch -->
    <title>表格无数据</title>
    <desc>Created with Sketch.</desc>
    <g id="Page-1" stroke="none" stroke-width="1" fill="none" fill-rule="evenodd">
        <g id="OD分析-出行概况-Copy-2" transform="translate(-699.000000, -235.000000)">
            <g id="Group-7" transform="translate(699.000000, 235.000000)">
                <g id="Group-4">
                    <g id="empty">
                        <path d="M0.0441576308,31.1311141 C0.0441576308,48.2999661 13.9622621,62.2180706 31.1311141,62.2180706 C48.2999661,62.2180706 62.2180706,48.2999661 62.2180706,31.1311141 C62.2180706,13.9622621 48.2999661,0.0441576308 31.1311141,0.0441576308 C13.9622621,0.0441576308 0.0441576308,13.9622621 0.0441576308,31.1311141 Z" id="Path" fill="#F6F7F9"></path>
                        <polygon id="Path" fill="#C4C6CF" points="31.1311141 5.69633152 56.5658967 5.69633152 56.5658967 41.0224185 31.1311141 41.0224185"></polygon>
                        <polygon id="Path" fill="#D1D6DB" points="5.69633152 5.69633152 31.1311141 5.69633152 31.1311141 41.0224185 5.69633152 41.0224185"></polygon>
                        <path d="M29.7180707,38.9028532 C29.7180707,39.6832556 30.3507118,40.3158967 31.1311141,40.3158967 C31.9115165,40.3158967 32.5441576,39.6832556 32.5441576,38.9028532 C32.5441576,38.1224509 31.9115165,37.4898098 31.1311141,37.4898098 C30.3507118,37.4898098 29.7180707,38.1224509 29.7180707,38.9028532 Z" id="Path" fill="#FFFFFF"></path>
                        <polygon id="Path" fill="#FEFFFF" points="7.10937498 7.81589674 55.1528533 7.81589674 55.1528533 36.783288 7.10937498 36.783288"></polygon>
                        <polygon id="Path" fill="#D0D5DE" points="33.9572011 41.0224185 31.1311141 41.0224185 31.1311141 47.3811141 34.6637228 47.3811141"></polygon>
                        <polygon id="Path" fill="#D5DBE1" points="28.3050272 41.0224185 27.5985055 47.3811141 31.1311141 47.3811141 31.1311141 41.0224185 28.3050272 41.0224185"></polygon>
                        <polygon id="Path" fill="#BEC9D5" points="22.6528533 45.9680707 39.609375 45.9680707 39.609375 47.3811141 22.6528533 47.3811141"></polygon>
                        <polygon id="Path" fill="#DFE2E7" points="1.86980976 47.3811141 60.3924185 47.3811141 60.3924185 52.3267663 1.86980976 52.3267663"></polygon>
                    </g>
                </g>
            </g>
        </g>
    </g>
</svg>